<?xml version="1.0" encoding="UTF-8"?><svg id="Layer_2" xmlns="http://www.w3.org/2000/svg" viewBox="0 0 1920 1259.96862"><defs><style>.cls-1{fill:#037233;}.cls-2{opacity:.03;}</style></defs><g id="Layer_1-2"><g class="cls-2"><path class="cls-1" d="M10.22253,672.36595c6.28659-.8859,12.78811-1.80137,19.19638-2.45982,49.44547-5.08568,97.83673-4.79,143.81821,.87794,65.60546,8.08568,129.2094,26.55651,189.04344,54.90188,31.49435,14.91927,62.45193,32.11414,92.38942,48.74153,13.12359,7.28962,26.69298,14.82602,40.13159,22.07357,55.74229,30.06372,100.17032,48.86776,144.05476,60.97126,52.55692,14.49623,109.15896,23.13915,178.12948,27.19905,46.03265,2.71115,86.95689,4.05649,124.67187,4.05535,26.49283,0,51.40264-.663,75.38447-1.98446,55.19188-3.03867,103.36479-9.10122,147.26856-18.53566,62.3928-13.40676,116.68172-33.5334,165.97139-61.53305,34.84917-19.79456,66.88029-44.62818,97.85834-68.64413,3.9621-3.07051,7.92192-6.14102,11.89084-9.20244,50.99779-39.35031,97.27381-63.81774,145.63323-77.00388,10.20775-2.78393,20.62701-5.48257,30.70512-8.0925,24.20018-6.26726,49.22599-12.74831,73.35338-20.93407,44.67481-15.15354,77.38144-34.74796,102.9281-61.66497,22.29419-23.48486,34.80141-50.20969,37.17593-79.43072,3.01365-37.04174-8.44732-72.01714-35.0425-106.92659-24.98487-32.79761-60.53684-56.79992-108.68701-73.37613-45.88482-15.79608-92.79996-21.76538-144.96909-27.42308-42.96669-4.66149-86.90912-8.8317-130.60137-12.39463-51.85071-4.22821-106.43303-7.49773-162.23219-9.71646-81.20025-3.23086-161.85463-4.63079-239.66367-4.16111-75.75521,.45717-151.46947,2.2881-225.03666,5.4439-54.34806,2.33018-110.57481,5.42912-167.11999,9.21267-52.29991,3.50152-98.49633,6.9041-141.22989,10.40221-34.96175,2.86354-71.2552,6.02503-107.86935,9.39804-29.51558,2.71911-59.49401,5.77484-88.48532,8.73049l-1.99128,.20243c-34.34652,3.49925-74.30411,7.58871-113.86935,11.8408-16.69335,1.79341-33.64826,3.75398-50.04365,5.64974-10.19865,1.1793-20.39729,2.35975-30.59822,3.50721-18.89843,2.12661-37.80027,4.22025-56.70325,6.31161l-25.68426,2.84648v7.92988l1.31805-.17513c1.89576-.25246,3.79038-.51403,5.68613-.77673,4.05421-.56065,8.10843-1.12244,12.17287-1.58302,15.91094-1.80819,31.8196-3.63344,47.72826-5.45982,40.36586-4.63192,82.10548-9.42306,123.1912-13.81389,63.21956-6.7574,121.91751-12.68917,179.44638-18.13535,53.56564-5.07203,101.28708-9.13648,145.89252-12.42534,73.37044-5.40865,133.23405-9.37757,188.39408-12.49016,77.90911-4.39652,154.95166-7.22594,228.98738-8.41206,137.87734-2.20736,259.81304-.14443,372.78285,6.30365,41.23128,2.35406,85.62178,5.06521,130.8652,8.9386,49.21689,4.21456,101.98647,9.12397,154.41717,16.45112,42.12287,5.88628,75.3549,13.87644,104.58617,25.14522,52.59445,20.27675,88.93111,51.34237,111.08429,94.97434,25.34196,49.91173,21.67099,96.54485-10.9151,138.60289-17.0584,22.01671-40.47844,39.64827-73.70138,55.48983-31.81732,15.16946-66.32987,23.98411-99.7052,32.50762-4.46248,1.14064-8.92723,2.28014-13.38516,3.43556-55.3147,14.32451-95.4315,31.05766-130.07824,54.25708-26.43142,17.69752-51.4686,36.70057-80.92731,59.78741-55.00082,43.10771-115.0987,74.89774-178.62417,94.4876-69.39356,21.40033-145.32845,32.65546-232.1466,34.40906-100.8447,2.03905-182.67724-1.86391-257.54314-12.28091-53.54404-7.44883-100.74007-19.5421-144.28561-36.97351-44.68163-17.88516-87.34241-41.60771-128.59871-64.54898l-5.41206-3.00796c-46.74456-25.97767-89.17562-48.87231-135.10251-65.98643-55.24988-20.58607-113.46678-33.19337-173.03356-37.46934-35.00156-2.51327-66.83367-2.26194-97.32157,.77218-10.25437,1.02009-20.50647,2.06179-30.75857,3.10463l-15.01366,1.52388v7.94012l1.31805-.17513c2.9693-.39348,5.93632-.81198,8.90448-1.22934Z"/><path class="cls-1" d="M60.31622,552.8389c47.12553,6.63913,95.85569,13.50456,143.44066,22.36356,65.95345,12.2775,117.85647,28.2453,163.34326,50.24949,36.97578,17.8863,71.76582,40.81733,105.40953,62.99325l9.49698,6.25475c36.37192,23.91246,75.45725,48.78019,118.19536,66.96672,92.95348,39.55388,191.98544,50.23243,267.87484,55.11682,41.91362,2.6975,84.58691,3.64709,125.85686,4.56483,7.10767,.15807,14.21761,.31615,21.32527,.48332,13.87644,.32525,27.99624,.55497,42.31847,.55497,42.52317,0,86.73627-2.03109,130.91297-9.63572,54.00461-9.29683,100.26016-27.20473,141.41184-54.74722,26.94545-18.03641,52.63539-38.58496,77.47697-58.45685l10.40107-8.30971c48.27981-38.49171,96.14113-63.62782,146.32011-76.84694,11.98182-3.1558,23.97728-6.25361,35.97275-9.35255,18.3048-4.72745,37.23052-9.61525,55.79233-14.63952,41.31771-11.18235,70.53989-24.63688,94.75371-43.62173,40.2237-31.5387,52.9106-78.62329,33.93939-125.95011-12.15468-30.31846-33.03416-54.76201-63.83025-74.72829-41.60657-26.97388-89.36553-36.52317-126.3254-41.82947-32.58609-4.67855-65.93184-6.348-98.18131-7.96286l-12.59365-.63685c-69.33215-3.57658-141.28447-6.59136-219.96918-9.21495-117.31401-3.91092-214.18524-6.09667-304.85859-6.88022-9.8643-.08529-19.72861-.18082-29.59291-.27635-108.90536-1.05307-221.52945-2.14026-331.9405,10.90714-37.81051,4.46703-78.53345,9.64937-124.49787,15.84157-32.79306,4.41926-66.11266,9.06142-98.33711,13.55005-19.63649,2.73617-39.27412,5.47233-58.91516,8.17666-26.63385,3.66642-53.27451,7.28621-79.91404,10.906l-76.27378,10.37719c-33.33893,4.53412-66.67787,9.06824-100.0077,13.66491-13.37833,1.84458-26.96137,3.84041-40.09747,5.77142-6.07506,.89272-12.15013,1.78545-18.22633,2.66793l-.99735,.14443v8.42116l1.67059-.80629c.27862-.13419,.55383-.2934,.8279-.45375,.44124-.25815,.85747-.50265,1.18954-.54814,51.7802-7.14633,103.56267-14.26537,155.34628-21.38441l36.26843-4.98674c20.71117-2.84762,41.41893-5.72366,62.12668-8.59971,45.81431-6.36392,93.18775-12.94391,139.822-19.09631,20.99206-2.76915,41.97162-5.63951,62.95004-8.511,43.08383-5.89652,87.63581-11.99319,131.57256-17.06295,63.35603-7.31123,129.97817-11.33019,198.01843-11.94429,119.16087-1.07468,240.01166,1.31918,352.84272,4.06786,98.63166,2.40296,185.81372,5.46665,266.52496,9.36733,13.92648,.67324,27.8575,1.24526,41.78853,1.81843,42.22522,1.73654,85.8879,3.53223,128.62942,8.23466,42.30938,4.65467,75.66195,12.74376,104.96828,25.45454,45.28663,19.64445,75.24346,47.4758,91.57858,85.08388,15.92117,36.65167,12.65506,70.21464-9.70054,99.75637-12.08872,15.97348-28.392,28.61489-52.85601,40.98792-30.18427,15.26499-63.3185,23.45643-95.36327,31.37949l-8.94542,2.21645c-39.65509,9.88477-75.26393,19.35446-109.4717,35.19147-40.71271,18.84839-75.89622,46.77754-109.91977,73.78667l-.43897,.34685c-28.84916,22.89919-58.67861,46.57739-91.75826,64.43525-51.22523,27.65507-111.57329,42.09444-189.91683,45.4413-54.36625,2.32563-109.66958,.47536-163.15334-1.31691l-18.7142-.62093c-78.06378-2.5326-137.38151-8.27332-192.3323-18.61299-64.90948-12.21381-120.56421-31.10315-170.14273-57.74609-33.23203-17.85901-65.17104-39.01483-96.05698-59.47467-7.67059-5.08113-15.34005-10.16112-23.03566-15.19903-57.55276-37.67404-115.28179-63.5721-176.48618-79.17485-55.03835-14.03224-111.96223-22.42611-167.01195-30.54363l-16.50116-2.43935c-19.25211-2.85785-38.50649-5.69864-57.76201-8.54057l-26.55765-3.91888v7.9151l20.90336,3.01479c13.13269,1.89462,26.27334,3.74489,39.41286,5.59629Z"/><path class="cls-1" d="M1911.1501,615.97657c-4.91964,3.96778-10.00759,8.06976-15.13194,11.93064-40.50119,30.51179-88.06682,52.83441-154.23293,72.37878-26.99548,7.97423-54.76428,14.91359-81.61875,21.6255-20.01064,5.00038-40.70134,10.17249-60.93715,15.73694-60.91213,16.75135-111.72796,38.22332-155.34742,65.64299-10.8969,6.84952-21.87341,13.96855-32.48601,20.85446-20.0584,13.01101-40.80141,26.46554-61.85148,38.64182-62.36778,36.07396-134.7204,60.79613-227.70232,77.80449-60.04783,10.98333-121.7401,17.36545-181.40128,23.53831l-12.39804,1.28507c-43.3488,4.49887-88.17372,9.1524-132.96452,15.73467-13.02124,1.91282-28.14863,5.03109-41.62477,13.65127-14.59517,9.33436-22.93558,22.86963-22.88327,37.13499,.05231,14.04475,8.28811,27.26387,22.59897,36.26843,14.34498,9.02958,30.78017,16.80138,50.24949,23.75894,32.34727,11.56104,66.3276,18.85976,99.19117,25.91967,5.87491,1.26232,11.7521,2.52464,17.62246,3.80971,44.29497,9.70509,88.58312,19.43975,132.87127,29.17668,56.0175,12.31161,112.03273,24.6255,168.06388,36.87798,56.19946,12.28887,115.81515,26.08798,172.54911,47.62022l3.72555,1.41016c18.00457,6.82108,36.62097,13.87416,53.93638,23.05386l.25701,.13647h15.29797l-1.61031-1.91509c-1.33738-1.58984-3.06596-2.26081-4.73541-2.90903-.54814-.21152-1.09629-.42532-1.62623-.67324-60.22069-28.34651-126.45277-49.91287-208.43088-67.8674l-76.25104-16.69676c-91.15325-19.95833-182.30878-39.91665-273.44384-59.9705l-7.66036-1.68082c-34.45796-7.54436-70.08954-15.34573-103.18739-29.68389-13.48523-5.8408-27.65735-12.33436-39.68238-21.79836-12.26158-9.64823-15.65733-21.95075-9.82564-35.57699,3.30705-7.72404,8.57924-14.13573,15.67098-19.05992,11.90676-8.26536,25.69904-11.25399,36.38215-12.93254,38.45873-6.04322,77.81814-10.21912,115.88111-14.25855l11.38819-1.21001c8.6452-.92115,17.29039-1.82866,25.93786-2.73617,44.6134-4.6831,90.74613-9.52313,135.91222-16.27599,62.95231-9.40714,117.46868-21.90298,166.66282-38.20512,53.67027-17.78395,106.43985-44.76465,161.32923-82.48418,62.34048-42.84273,129.63927-73.66726,200.0245-91.61611,12.31389-3.14102,24.6528-6.20243,36.9917-9.26385,33.903-8.41206,68.96142-17.11071,102.99861-27.40943,56.84995-17.19941,100.82878-37.22597,138.40502-63.02282,7.41699-5.0925,14.66567-10.66946,21.67554-16.06332,3.25702-2.50531,6.51176-5.00948,9.79607-7.47613l.46399-.35027v-9.94163l-1.89007,1.50114c-2.32677,1.8514-4.64216,3.71759-6.95983,5.58492Z"/><path class="cls-1" d="M1755.29093,628.83633c-40.51256,19.38061-82.84695,31.92309-115.20105,40.68542-71.74535,19.42838-134.05854,50.55995-190.49681,95.17221-64.44208,50.93751-138.65748,88.55583-226.88579,115.00203-110.97511,33.26501-229.08518,51.42993-361.08307,55.53305-75.82117,2.36088-149.09495-3.42305-217.81072-17.19486-73.88106-14.80555-144.43573-41.48375-215.69548-81.55734-40.22143-22.61716-76.7173-42.67329-116.08581-59.07892-80.68395-33.61983-163.62188-36.67101-246.50863-9.07393-23.41208,7.79683-45.03417,18.8029-64.91175,29.53605l-.61183,.3298v9.74035l1.77976-1.10993c48.37989-30.1456,103.0839-46.81279,162.59496-49.53986,47.58042-2.18006,96.08199,6.83928,144.13436,26.81239,37.88898,15.74831,73.2317,35.07207,112.20445,56.86815,60.98946,34.10997,118.12599,58.07475,174.67458,73.26696,66.61987,17.89881,137.11995,27.32869,215.5249,28.82983,7.21229,.13647,14.4587,.20698,21.75742,.20698,58.33745,0,119.66125-4.41471,186.69393-13.41472,52.84919-7.09402,100.79466-15.84839,146.5794-26.75894,116.7272-27.8177,213.64165-72.94512,296.2839-137.96036,44.50877-35.01862,87.80753-58.93335,132.36407-73.11116,15.29797-4.86847,30.88935-9.70737,45.9667-14.38705,18.5004-5.74299,37.6331-11.68159,56.38824-17.72368,84.95764-27.36963,158.38836-75.0433,218.24969-141.69842,.34117-.38097,.64822-.83245,.953-1.29303,.9257-1.38969,1.39879-1.89803,2.51327-1.72517l1.33738,.20015v-14.23694l-2.04928,2.40182c-45.42992,53.23016-100.15554,95.37919-162.65978,125.27915Z"/><path class="cls-1" d="M1854.18415,323.58313c-36.20474-14.42799-66.36172-37.00876-93.55735-59.26201-21.91663-17.93292-49.02811-36.88708-83.94096-41.49057-12.95301-1.70811-27.03415-2.56899-43.05085-2.63268l-131.4884-.52654c-100.39891-.40485-200.79781-.80971-301.19672-1.17589-126.23669-.45944-239.60453-.81653-346.5857-1.09174-84.99631-.21721-150.50966-1.39765-212.41686-3.82677-25.50458-1.00076-51.4197-2.49166-76.48076-3.93367-29.91474-1.72062-60.8473-3.50038-91.32156-4.4602-62.98529-1.98901-126.89742,3.48787-189.94298,16.26689-54.1172,10.96855-109.06116,22.49775-162.19693,33.64826-16.43861,3.44921-32.87722,6.89842-49.3181,10.33853-16.43065,3.4367-33.10808,7.05194-49.23736,10.54891-7.50911,1.62737-15.01821,3.25588-22.52959,4.87188l-.92002,.19788v8.97044l1.90599-1.57278c1.46134-1.2066,3.3116-1.48408,5.27218-1.77862,.67551-.10121,1.34648-.20243,1.99924-.34003,51.27413-10.76157,102.55964-21.4697,153.844-32.17782,30.07396-6.27863,60.14677-12.55839,90.21732-18.84839,36.05349-7.54095,78.69153-15.79949,121.56042-19.87872,53.5827-5.10046,106.63546-3.59591,169.80384,.23199,49.6388,3.00796,108.32537,6.25133,167.2212,7.51024,92.01527,1.9674,185.57717,2.12775,276.05946,2.28355,42.7165,.07392,86.88638,.15011,130.32843,.41509,116.41333,.71077,234.77814,1.0508,349.24454,1.37946,60.26618,.174,120.53236,.34685,180.79855,.57202,34.43977,.12964,64.71274,9.9132,89.98419,29.07888,14.52011,11.01404,26.1926,20.0493,36.72787,28.43521,42.74607,34.01672,91.08502,55.71955,143.6772,64.50463l1.35557,.22631v-7.95831l-1.01668-.13078c-24.37076-3.1251-47.43144-11.47234-64.79917-18.39464Z"/><path class="cls-1" d="M1918.63078,22.40574c-73.61267,13.11905-134.2132,21.56523-190.71516,26.5804-45.10468,4.00417-90.29351,6.04663-134.42927,5.94542-66.34125-.08643-132.64155-6.93253-188.74549-13.61942-71.83632-8.56218-134.89781-14.43823-192.78946-17.9659-52.93335-3.22404-106.79012-5.29493-158.87509-7.29758-17.12436-.65845-34.24644-1.31691-51.36625-2.01517-30.73696-1.25436-61.99704-2.27104-92.2268-3.25361-25.73771-.837-52.35336-1.70243-78.52094-2.71001-56.12213-2.16187-129.9577-4.88211-203.40661-6.74489C521.36036-1.3657,427.30718,.03309,340.01822,5.59981c-15.32868,.97801-30.6528,2.02426-45.97807,3.07165-38.49853,2.6304-78.30714,5.35065-117.52554,6.86999-68.76468,2.66338-124.44101,.86998-175.20112-5.64974l-1.3135-.16831v7.94012l1.05307,.10008c24.06371,2.30402,51.33895,4.91396,78.25824,5.79303,74.05847,2.42002,149.02444-2.7862,215.16326-7.37719,48.36169-3.35823,100.13962-6.63117,151.10215-7.82298,104.64076-2.44959,209.67841,.7119,289.49693,3.74034,85.57175,3.24678,172.58777,6.31388,256.73571,9.27977l10.45566,.36846c79.04179,2.78734,160.77654,5.66907,242.71826,11.27105,52.90378,3.61638,106.44668,9.6687,158.22687,15.52314,9.13193,1.0326,18.26386,2.0652,27.39806,3.0853,57.22979,6.39349,101.22453,9.62094,142.6446,10.4659,8.34269,.16945,16.73315,.25588,25.20321,.25474,37.84008,0,77.09031-1.7047,119.20408-5.16528,44.10164-3.62548,90.21845-9.17856,137.06764-16.50571,14.80441-2.31653,29.83627-4.77863,44.37458-7.16112,6.63913-1.08833,13.27826-2.17551,19.91966-3.25361l.97801-.15921v-7.93898l-1.36922,.2445Z"/><path class="cls-1" d="M1846.14624,258.07206c-7.84914-4.31577-15.74376-8.87719-23.37683-13.28849-18.91663-10.93216-38.47692-22.23619-59.12441-30.82566-46.94926-19.52618-99.03423-29.76122-168.88269-33.18768-55.26921-2.70887-111.4573-1.73086-165.8008-.78696-18.06825,.31387-36.75289,.63912-55.12592,.82335-67.79235,.6812-128.94557,.87339-190.80614-3.71077-49.24191-3.64936-100.86062-9.24565-157.80837-17.10844-37.55349-5.18575-75.12063-10.2737-112.69005-15.36052-21.5095-2.91244-43.02128-5.82487-64.52851-8.75664-74.0198-10.08606-135.95543-15.67894-194.91608-17.59744-71.35414-2.31994-134.38947,.91319-192.70303,9.89273-66.66422,10.26347-131.46793,26.3575-186.06845,40.74796-14.52352,3.82677-29.03226,7.71381-43.54213,11.60085-60.89621,16.31465-123.86558,33.18427-186.90886,45.13879-3.0671,.58112-6.13079,1.2066-9.19448,1.83321-10.90373,2.22669-22.17819,4.52844-33.5243,4.7138l-1.14519,.01933v7.96513l1.25891-.10121c15.52655-1.25777,30.97464-4.36468,45.91438-7.36809,2.70887-.54473,5.41888-1.08946,8.1289-1.62396,57.84503-11.40411,115.67527-26.87949,171.60066-41.84539,16.87189-4.51365,34.31695-9.18197,51.50044-13.66833,72.32647-18.88365,156.61201-39.62893,241.65267-46.79573,41.99436-3.53677,86.06417-4.58075,130.98461-3.11486,47.41893,1.55345,97.38867,5.50076,152.76478,12.06939,42.44129,5.03336,84.44817,10.85028,125.0699,16.475,9.72329,1.34648,19.4443,2.70319,29.16759,4.0599,34.77411,4.85255,70.73321,9.86999,106.17374,14.32337,62.37687,7.8389,117.56875,12.68462,168.72575,14.81238,58.99931,2.45527,118.98574,1.42608,176.99566,.43669,13.71268-.23541,27.42535-.46967,41.13803-.66073l6.55725-.09212c66.53912-.9348,135.3345-1.90485,202.6151,7.25209,53.9341,7.3408,101.15175,23.21648,144.35044,48.53455,2.9022,1.70129,5.80213,3.41168,8.70206,5.12207,32.64295,19.25097,66.40038,39.15812,105.32537,46.25783l1.37377,.25133v-7.94125l-.97347-.16149c-26.9045-4.4784-50.92728-16.26461-72.8803-28.334Z"/><path class="cls-1" d="M1910.51326,148.6413c-57.02054,.04549-114.04108,.10917-171.06161,.17286-129.48006,.14556-263.36119,.29227-395.0452,.21039-116.46337-.07392-205.76977-4.41585-289.56289-14.08-58.0918-6.70054-116.90461-15.5095-167.47025-23.24036l-9.70737-1.48522c-51.39354-7.86278-104.53614-15.99395-157.04188-22.33627-60.93601-7.35899-115.07027-11.31427-165.49375-12.08872-54.54252-.84041-104.62143,2.221-153.12869,9.34686-55.03153,8.08454-108.85646,22.61147-159.27085,36.79838-9.84724,2.77142-19.68539,5.5781-29.52354,8.38591-55.11682,15.72443-112.11006,31.9845-169.76745,41.36548-2.5906,.42191-5.17893,.86998-7.76726,1.31805-11.23239,1.94579-22.8537,3.96892-34.47388,3.61183l-1.19864-.03525v7.98674l1.2282-.0671c26.40299-1.43745,52.76276-6.55611,77.49971-11.6759,49.82758-10.31237,99.48003-24.60276,147.49828-38.42234l16.56484-4.76157c70.97203-20.35067,155.67494-41.65774,245.79787-45.38785,59.16307-2.44959,121.69575-.26839,191.17688,6.66756,40.04857,3.99735,82.41708,9.45263,133.33526,17.16871,36.24796,5.4928,73.12367,10.9333,108.78481,16.19524,17.90222,2.64178,35.80444,5.28355,53.70666,7.94239,59.95003,8.90448,119.36102,15.2684,176.58171,18.91321,56.19264,3.57999,115.47171,5.33814,181.22387,5.37567,124.09871,.07961,250.2467-.08643,372.24836-.24223,63.93033-.08074,127.86065-.16035,191.7887-.21039,1.87415-.00114,3.75057-.058,5.62927-.11486,5.12662-.15921,10.42837-.31615,15.53451,.74147l1.40106,.28999v-8.12548l-3.78696-.10235c-1.90144-.05914-3.84383-.0671-5.69978-.11486Z"/><path class="cls-1" d="M1911.95299,81.56768c-4.7718,.59136-9.70509,1.20319-14.56332,1.58871l-27.53453,2.20394c-46.74228,3.7483-95.07669,7.6251-142.67189,10.67969-70.83102,4.54549-134.79091,7.53754-195.53245,9.14785-124.99257,3.31388-238.4946,1.73541-346.98601-4.82298-60.33896-3.64822-120.54829-8.79417-178.95396-15.2957-54.50044-6.0671-109.56723-14.63952-162.82127-22.9299l-20.99093-3.2627c-48.05919-7.44542-87.03649-12.00115-122.66125-14.33701-56.43714-3.6994-115.499-3.34572-180.55518,1.0815-42.25706,2.87718-86.29616,7.25323-134.6317,13.37833-51.14221,6.48105-101.11877,14.11639-147.50851,21.4026-55.23168,8.6759-110.47701,17.26196-165.72347,25.83779-16.04513,2.49166-32.09936,4.92419-48.15358,7.35672L0,117.03664v7.91851l1.3442-.20925c17.37455-2.70432,34.75137-5.39728,52.12819-8.09023,38.57245-5.97726,78.45726-12.15809,117.66655-18.36848l16.36355-2.59288c72.24686-11.45756,146.95241-23.30405,220.83915-32.13802,61.87763-7.39652,116.34623-11.76688,166.52067-13.36014,65.08461-2.07089,123.97702,.18651,180.04002,6.89273,36.06373,4.31236,72.54595,10.07014,107.82727,15.638,17.8863,2.8226,36.38215,5.74072,54.60279,8.43708,45.22977,6.6903,92.71125,12.46514,141.12071,17.16189,33.92802,3.29341,71.05619,6.19447,113.50203,8.8715,57.05693,3.59705,113.56117,5.78621,167.94789,6.50607,110.03121,1.4602,218.90473-.76763,323.57734-6.60956,57.62327-3.21494,109.28519-6.60046,157.93802-10.34876,22.43748-1.72858,45.23432-3.67324,67.27832-5.55421,10.0781-.85861,20.1562-1.71835,30.23658-2.56217l1.06672-.0887v-7.93557l-1.29644,.14898c-2.25171,.25701-4.50114,.53563-6.75058,.81425Z"/><path class="cls-1" d="M1914.50492,692.07295c-.22517,.28886-.43897,.56179-.62093,.71304-2.4928,2.0834-4.92874,4.23389-7.36468,6.38553-2.88856,2.5508-5.87719,5.18916-8.90448,7.65467-38.16077,31.07585-84.53005,57.09446-141.75529,79.54331-49.2874,19.33399-101.07897,33.80747-151.16697,47.80445l-3.1251,.87339c-54.00916,15.09441-116.60438,33.33325-175.96533,58.81849-10.68538,4.58757-21.34802,9.23428-32.00838,13.88099-29.66569,12.93027-60.34351,26.2995-91.08047,38.10391-25.02126,9.60729-51.25707,16.76272-76.6286,23.68161-13.56256,3.69826-27.58684,7.52389-41.27222,11.67932-18.51405,5.62245-37.65812,11.43595-54.12743,23.39957-12.19789,8.85899-18.7324,20.77031-17.93406,32.68162,.79606,11.8317,8.77711,22.66947,21.90071,29.73847,12.81199,6.89842,26.31997,12.6778,39.05691,18.00684,50.1244,20.96363,103.0259,36.21839,154.18517,50.97277,8.3154,2.39727,16.6308,4.79682,24.93938,7.21911,89.3951,26.06523,165.45281,59.2404,232.51506,101.41559,1.81274,1.1395,3.66187,2.23124,5.51327,3.3207,5.63837,3.32298,11.46552,6.75967,16.05309,11.6361l.34572,.36619h9.69372l.25701-.81653c1.05307-3.36392-1.61714-4.33511-2.9022-4.80137-.37983-.13874-.77331-.28203-.98256-.42305-29.84992-20.05385-62.31092-38.93636-96.47775-56.12668-62.14488-31.26236-129.08886-52.42614-192.17536-70.63996-51.97808-15.00457-105.72795-30.51861-156.42551-52.68088-1.75588-.76877-3.51403-1.52616-5.27673-2.28583-10.54209-4.55118-21.44354-9.25475-31.14636-15.71192-12.58227-8.37226-15.36393-20.76121-7.62852-33.98715,4.22593-7.22821,10.80365-12.93254,20.70207-17.94998,16.42837-8.33132,34.47616-14.89084,53.63843-19.49434,61.79461-14.8499,126.24124-37.68086,197.02449-69.79614,51.55958-23.39502,104.74084-43.11681,158.06539-58.61607,16.18956-4.70471,32.69754-9.34232,48.66192-13.8264,37.77866-10.61146,76.8424-21.58456,114.70749-34.3124,67.07589-22.54665,119.25867-47.83743,164.22233-79.58994,8.98409-6.34345,17.57925-13.41927,25.89465-20.2631,4.19409-3.45376,8.38818-6.90638,12.64596-10.2828l.44124-.34913v-6.72556l-.49583-.34799c-2.64746-1.86278-4.23503,.16149-4.99925,1.13154Z"/><path class="cls-1" d="M1810.83308,811.76377c-67.58765,29.39958-138.40957,50.20969-211.07379,70.6809-8.14482,2.29492-16.29646,4.57847-24.44582,6.86089-59.29499,16.60919-120.61197,33.78473-179.41795,55.61947l-5.74982,2.12661c-23.75894,8.77484-48.32758,17.84763-69.26619,33.6892-11.52465,8.71798-19.30783,17.22898-24.49131,26.78851-9.05915,16.70131-5.395,31.81732,10.31692,42.56411,4.76498,3.25702,9.8734,5.46324,13.79228,7.02351,24.88252,9.89842,50.46329,12.8825,78.92352,15.51632l8.42912,.76422c22.51709,2.01971,45.80294,4.10766,68.09485,10.26233,39.37306,10.86506,65.40645,31.71497,79.58311,63.74382,2.53829,5.73162,5.78848,11.22443,8.93405,16.53755l1.07582,1.82184c10.52617,17.84763,26.27221,28.02126,46.80142,30.2434,6.65505,.721,14.52693,1.45338,22.58077,1.45338,.33889-.00227,.67551-.00227,1.01213,0,19.88782,0,40.34197,2.71115,60.80295,8.05839,43.62628,11.40866,83.84999,30.91891,122.74996,49.7855,.68916,.33207,1.43291,.60046,2.18347,.86657,1.92419,.68234,3.58681,1.27142,4.38515,3.10008l.30478,.69826h15.2684l-.98711-1.73768c-.94162-1.6649-2.47915-2.29037-3.83245-2.84307-.40713-.16604-.81425-.33207-1.19864-.52767-19.26007-9.83473-39.48223-19.4534-60.1047-28.5876-29.51558-13.07583-64.71046-27.26159-101.95691-33.32301-14.71116-2.395-29.76577-2.86581-44.32682-3.3207-2.8044-.0887-5.6088-.17513-8.4132-.27748-23.67706-.85292-40.31468-10.89918-50.86359-30.71421-3.88022-7.2828-7.73996-14.5747-11.60198-21.86887l-1.69902-3.20698c-9.59137-18.11602-24.08418-32.5406-43.07132-42.87799-27.43673-14.93178-57.50045-19.80366-80.62709-22.38289-8.20168-.91433-16.55802-1.63988-24.63915-2.34269-18.3844-1.59667-37.39656-3.24792-55.76959-7.22821-14.51556-3.14784-30.96895-6.71419-44.37458-16.99016-8.96589-6.87567-11.30858-15.49357-7.16225-26.34954,1.48977-3.90296,3.71191-7.70357,6.79379-11.61791,10.72632-13.6308,25.37607-24.36849,46.10544-33.79155,37.88784-17.22216,77.2336-30.02278,114.28444-41.65888,37.34197-11.72594,75.66423-22.46136,112.72417-32.84196,35.47237-9.93595,72.1502-20.20965,107.93417-31.34424,71.2245-22.16227,127.84246-44.62704,178.18065-70.70137,11.05839-5.72707,21.96894-12.08986,32.51786-18.24339,6.48901-3.78355,13.19865-7.69675,19.8628-11.41662l.59818-.33321v-9.78242l-1.80137,1.17703c-31.56713,20.60996-66.68696,39.2309-107.36556,56.92842Z"/><path class="cls-1" d="M434.06572,1144.84263c8.35748-2.64064,17.0004-5.37226,24.52656-10.61715,16.16226-11.26082,19.82982-27.42308,10.06445-44.34046-.94958-1.6467-1.92419-3.27976-2.89765-4.91054l-.63571-1.06672c-6.07961-10.21002-5.40979-20.15393,2.04814-30.40034,5.03336-6.91206,11.77257-11.63838,20.60427-14.44278,14.00494-4.44656,28.59556-3.35709,42.70286-2.3063l4.18841,.30933c15.15809,1.10766,30.83476,2.25171,45.97352-3.07051,9.73238-3.42305,16.57963-9.33436,19.80253-17.09024,3.22063-7.74906,2.57923-16.76044-1.85482-26.06296-5.58151-11.71116-15.29115-20.09252-28.85712-24.90754-54.25935-19.26917-103.31817-49.40453-152.96834-81.20025-36.19223-23.18009-67.14185-41.55994-100.54447-55.91402-50.04365-21.50495-93.3083-29.14712-136.14535-24.0512-53.13577,6.31957-104.62029,22.93672-153.02293,49.38975-6.03526,3.29909-12.05574,6.62321-18.07622,9.94732l-8.97385,4.95148v9.71988l1.77521-1.09287c11.58948-7.13951,25.10996-15.34573,38.91475-22.40223,46.07018-23.54855,94.03271-38.13462,142.55817-43.35335,40.31127-4.33056,82.49782,3.2809,128.96604,23.2904,39.56639,17.03452,76.38751,40.44432,111.99634,63.08309,3.89045,2.47347,7.77977,4.9458,11.67363,7.41131,37.27942,23.60427,77.97394,47.65889,122.93532,63.7097,7.56256,2.69978,17.2233,6.70736,24.86318,13.8173,9.37643,8.7248,12.84725,18.38895,10.31578,28.72407-2.41661,9.86658-10.26802,13.76726-21.31276,16.58531-12.84611,3.27749-26.01974,2.11069-38.7635,.98711-2.13344-.18878-4.26687-.37756-6.39917-.54587-14.21761-1.13268-30.69033-1.80137-46.32378,4.51706-12.50381,5.05611-21.37531,13.71268-24.97918,24.37759-3.57771,10.58303-1.81501,22.71269,4.96172,34.15319,.77445,1.30781,1.48408,2.65201,2.19371,3.99394l.76194,1.43745c4.18613,7.81502,3.55383,15.27068-1.93442,22.79684-6.92912,9.50039-17.38023,13.51935-26.68957,16.19865-40.84349,11.74982-76.47848,32.52923-105.91673,61.75822-19.98562,19.84233-34.57624,39.49133-44.60657,60.0683l-.81653,1.674h8.10388l.33321-.59591c31.24189-55.74229,77.56112-93.87123,137.67037-113.32462,1.25891-.40713,2.52237-.80516,3.78469-1.20546Z"/><path class="cls-1" d="M1915.62168,813.44686c-1.78545,1.15087-3.63003,2.34041-5.50418,3.35368-42.44357,22.92535-90.69609,42.90073-151.85386,62.86588-35.6657,11.64179-72.33443,22.1509-107.79543,32.31315-30.17289,8.64747-61.37612,17.59062-91.82877,27.19336-3.48901,1.09856-7.00304,2.13571-10.52162,3.17286-13.17136,3.88477-26.79306,7.90145-38.8886,15.33209-10.94694,6.72101-17.42913,15.84384-18.25021,25.68767-.83245,9.96893,4.14405,20.19942,14.01518,28.8105,8.2085,7.15998,17.90677,11.88857,26.35409,15.75969,18.46174,8.47006,28.45568,22.0258,30.555,41.44508,2.80668,25.96516,16.79684,43.49437,42.76654,53.59066,16.52163,6.42306,34.26463,13.16908,52.06905,18.99168,39.06601,12.77333,79.4239,23.50875,118.45351,33.89162,47.33592,12.59137,96.28442,25.61034,143.25188,42.35941l1.55573,.55497v-8.05156l-6.50494-2.11979c-4.00076-1.29871-8.00153-2.59743-11.98409-3.953-41.12893-14.00381-83.76128-25.29647-124.99029-36.22066-16.67856-4.41699-33.92347-8.98636-50.8272-13.66946-36.05008-9.99167-78.43224-22.47614-119.43835-39.30937-22.3556-9.17742-34.29193-24.08191-36.48678-45.56639-2.45186-24.01368-15.43671-40.99019-38.59292-50.45874-3.60728-1.47385-7.10994-3.48674-10.4966-5.43139l-.4185-.24109c-7.61487-4.37377-12.98485-8.95452-16.90373-14.41776-7.22594-10.07583-6.4276-20.45871,2.24489-29.24037,7.3897-7.48068,16.93785-11.35634,25.30329-14.16074,37.9265-12.70964,77.0198-23.92042,114.82804-34.76274l5.06521-1.4511c54.97353-15.76878,111.81893-32.07434,167.03811-52.87648,33.26388-12.5311,66.47999-27.60504,101.54296-46.08156l.62093-.32752v-9.74489l-1.77862,1.10538c-.87339,.54246-1.73541,1.0997-2.5997,1.65694Z"/><path class="cls-1" d="M1229.80585,1254.38484c-.67551-.24109-1.34875-.48218-1.99697-.75967-43.12363-18.46401-91.84924-34.02127-148.96758-47.56336-43.30559-10.26916-87.7393-18.60275-130.71282-26.66341-23.27448-4.36695-47.34047-8.87946-70.94246-13.64899-46.95153-9.48447-108.50733-23.13346-168.25721-44.64979-3.23427-1.16452-6.45717-2.35178-9.68235-3.54132-15.1706-5.59288-30.85978-11.37909-47.19035-14.37909-29.47009-5.4132-60.07513-2.20167-84.66424,.37301-25.76273,2.69978-46.17595,15.65051-60.67331,38.49057-4.84117,7.62397-9.59478,15.47765-14.19259,23.07205-2.02085,3.3389-4.0417,6.67552-6.0762,10.00532-8.7157,14.26992-16.89919,25.50344-28.50799,33.93256-11.3336,8.22897-24.80973,12.42989-37.84349,16.49206l-.3514,.10917c-20.26651,6.31843-36.03188,15.25476-48.1968,27.31846-.22062,.22062-.62206,.45717-1.04625,.70735-1.36808,.80743-3.91433,2.30857-2.11752,5.67249l.32866,.61638h8.96362l-.16149-1.30781c-.19447-1.58529,.69598-2.23351,2.2881-3.23882,.56065-.35709,1.14178-.72328,1.64557-1.17362,11.47348-10.21912,25.67971-17.54741,42.22522-21.78016,31.6638-8.10615,54.71424-26.19715,70.47165-55.3056,5.35634-9.89615,11.54285-19.58077,17.52694-28.94469l.37983-.59363c12.47765-19.53755,26.6998-30.46402,44.75896-34.392,8.33587-1.81274,17.04248-2.74072,25.46136-3.63912l.47081-.05004c39.4538-4.21001,70.98454-1.12813,99.24235,9.70737,42.25479,16.20548,86.22679,29.58381,134.427,40.90376,43.17594,10.14179,87.45499,18.47083,130.27385,26.52467,23.4064,4.40107,47.61113,8.95452,71.34959,13.74907,49.14866,9.92799,113.49521,24.30708,175.34668,47.55654,2.24261,.84382,4.51706,1.62169,6.79607,2.39955,7.00759,2.39272,14.25172,4.8696,20.3791,9.35937l.30705,.22517h16.76954l-1.59894-1.91282c-1.72858-2.06293-4.01896-2.88173-6.232-3.67097Z"/><path class="cls-1" d="M355.82453,1104.32552c26.04817-16.96287,40.24531-43.16684,42.19679-77.8841,3.22745-57.41174-20.66682-103.16237-71.02093-135.98159-43.52621-28.37039-94.0782-38.12324-154.55136-29.80102-45.03758,6.19561-89.502,21.32527-139.93117,47.61454-4.09515,2.13457-8.1016,4.54777-11.97613,6.88136-6.30933,3.80061-12.8336,7.73087-19.80366,10.47841l-.73806,.28886v9.74148l3.62548-2.04018c1.38514-.76877,2.77028-1.53753,4.11903-2.36771,42.30028-25.9879,83.75446-44.10278,126.73252-55.37725,51.42766-13.49206,96.68814-14.10843,138.36294-1.88438,68.54178,20.10503,113.73971,71.15171,117.95427,133.21926,2.75777,40.58761-10.89918,71.51335-40.58989,91.9152-25.21686,17.32678-45.3651,35.31998-61.59333,55.00992-27.66076,33.5641-47.55995,71.48833-63.3765,104.15858l-.80857,1.67172h9.71533l.21948-.88476c1.99697-8.04701,6.08189-15.35256,10.03261-22.41928,1.29303-2.31312,2.58492-4.62396,3.81198-6.96438,30.01255-57.26845,64.20895-97.10777,107.61916-125.37467Z"/><path class="cls-1" d="M1915.9401,861.52311c-84.50958,32.75895-159.85083,63.14564-230.33158,92.89094-10.41472,4.39652-23.85446,10.71722-35.45417,20.65658-13.16453,11.28129-20.39729,25.43748-20.3609,39.85979,.03412,14.33815,7.25778,28.34878,20.34271,39.44811,5.19713,4.41016,10.99925,8.47461,17.73846,12.42761,21.79608,12.7756,45.15472,22.43975,65.34049,30.49587,44.57018,17.78622,89.16766,35.50421,133.76513,53.2222l53.01977,21.06826v-8.06294l-.73237-.2934c-12.37302-4.92874-24.74832-9.84838-37.12362-14.76802-27.88252-11.08341-56.71349-22.54438-85.01451-33.95076-9.82564-3.95982-19.86507-7.86278-29.57471-11.6361-26.84764-10.43746-54.60962-21.22747-80.80677-34.39883-13.06218-6.56862-26.71118-13.9242-37.43067-25.20776-14.73846-15.50722-16.13952-33.79155-3.94618-51.48679,6.82563-9.90752,16.20775-17.60199,28.68768-23.52012,29.91816-14.20168,61.16687-26.73392,91.38752-38.85221,9.05687-3.6323,18.11374-7.2646,27.14787-10.94353,29.28586-11.92609,59.19264-23.73847,88.11459-35.16191,12.85521-5.07772,25.71269-10.15543,38.55653-15.25817l.73465-.29227v-8.21532l-2.47915,1.2282c-.51858,.26952-1.03715,.54018-1.58074,.75057Z"/><path class="cls-1" d="M967.73883,1256.77984c-1.72176-.68461-3.50493-1.39197-5.32222-1.94921-64.89924-19.87645-124.126-35.77942-181.06466-48.61188-42.46404-9.57317-75.36855-13.68993-106.56381-13.31237-37.57738,.44352-65.84428,9.17059-88.95727,27.46629-11.2665,8.91813-21.67213,19.05764-31.73544,28.86508-2.99318,2.91812-5.9875,5.83397-9.0057,8.7248l-2.09477,2.00607h11.77029l.34799-.40485c6.05346-7.01669,12.95415-13.44202,19.62853-19.65582l3.8552-3.60046c22.84461-21.43445,49.23167-32.95228,80.6703-35.21081,28.95265-2.07658,59.72145,.22745,94.07251,7.04398,55.47618,11.0129,114.38224,26.10845,185.38612,47.51105,1.12358,.33889,2.2881,.55724,3.41395,.76877,2.76801,.52085,5.38136,1.01213,7.25778,3.15239l.34799,.39575h26.37456l-5.98181-2.25398c-.80288-.3025-1.60121-.61865-2.39955-.9348Z"/><path class="cls-1" d="M1916.57695,919.64903c-1.23275,.66869-2.395,1.29871-3.62093,1.78317-42.48906,16.8264-83.57023,34.46251-122.10174,52.41932-8.58151,3.99849-18.42762,9.14103-26.38593,16.95832-7.03943,6.91889-10.74452,14.89312-10.71267,23.06068,.02957,8.20623,3.82336,16.20093,10.97196,23.12209,5.02199,4.86278,11.08568,9.01138,19.08721,13.05763,26.15621,13.22822,53.37914,25.94923,80.90684,37.80823,4.03488,1.73768,8.05384,3.51176,12.07507,5.2881,13.46021,5.94087,27.37759,12.08417,41.68163,16.69903l1.52161,.49128v-8.15619l-.98939-.15011c-.30933-.04776-.62775-.07733-.9439-.10462-.55724-.05004-1.08037-.09553-1.47839-.25701-46.66495-18.99623-88.74233-37.9447-128.63397-57.93487-7.13496-3.57317-15.22746-8.23352-21.15014-15.6778-7.46021-9.3753-7.15543-20.3791,.81425-29.43597,5.56104-6.31616,12.75058-11.4405,22.62626-16.12132,28.72634-13.62397,57.90303-26.49283,86.71807-38.24948,3.90524-1.59212,7.77635-3.27749,11.64747-4.96286,9.81654-4.27142,19.96742-8.69069,30.51861-11.44505l.87112-.22517v-9.74717l-1.69219,.86315c-.58226,.29568-1.15542,.60614-1.73086,.9166Z"/><path class="cls-1" d="M93.66652,469.52341c4.10198,2.54511,8.74641,4.39993,13.80366,5.51327,3.4947,.7699,7.0872,1.38287,10.56142,1.9765,6.38325,1.09174,12.98258,2.21873,19.07129,4.33966,38.8795,13.54551,79.00426,17.28812,116.77042,19.9606,45.64145,3.232,88.48305,16.50002,127.33412,39.4356,30.56296,18.04324,59.42577,39.54933,87.33786,60.34693,5.8624,4.36809,11.72367,8.73504,17.60427,13.07583,46.62401,34.41247,92.20178,58.98453,139.33754,75.1195,66.59485,22.79457,133.28181,33.12286,213.54271,44.25631l13.81958,1.91168c28.33286,3.91433,57.62782,7.96059,86.33596,12.5618,11.54967,1.8514,23.08797,3.77673,34.62855,5.70319,52.79688,8.81123,107.39057,17.92269,162.08207,19.3772,4.57393,.12055,9.08644,.18196,13.54892,.18196,46.87875,0,87.76432-6.72215,124.61728-20.45302,42.0933-15.68463,76.25104-42.3253,101.30641-63.78135,9.85748-8.44277,19.68767-17.2449,29.19033-25.75818,19.12588-17.12663,38.89997-34.8378,59.85905-50.4576,35.91816-26.7669,69.09106-41.17442,104.39967-45.34236,14.82261-1.75019,29.97047-2.98522,44.61795-4.17931,13.00987-1.0599,26.46326-2.15732,39.65964-3.61183,33.09784-3.65163,59.59294-13.82185,80.99327-31.09064,22.13953-17.86242,32.90451-40.23849,31.99246-66.50501-1.19409-34.27601-16.98334-61.8583-48.26844-84.32307-35.16304-25.25098-76.71503-33.76084-112.72644-38.75441-29.50648-4.09288-59.67937-6.22063-88.85606-8.27787-5.19258-.36619-10.38515-.73237-15.57545-1.1088-71.39281-5.18462-134.16998-9.26044-191.91835-12.46287-67.18507-3.72555-128.49522-6.02048-187.43313-7.01441-126.49598-2.13571-229.45137,1.60576-324.0254,11.76347-55.22145,5.93064-110.10855,14.33588-163.13628,24.98373-55.31811,11.10843-110.28482,27.11262-163.44106,42.58913l-6.0762,1.76952c-58.51258,17.02997-108.10248,26.36773-156.0616,29.38821-30.2923,1.90827-62.47695,2.88628-101.28822,3.07847-6.76764,0-13.53641-.01365-20.30518-.02729-16.11791-.03071-32.78283-.06482-49.17367,.09325-12.89729,.12396-24.27183,.62206-34.77298,1.52047-11.39842,.97347-20.13232,7.62965-22.25325,16.95718-2.14936,9.45718,3.5163,21.42535,12.89729,27.24454Zm-5.22783-27.06599c1.64216-4.52048,5.90562-7.71722,12.00343-9.00115,9.89501-2.08567,20.14256-2.33245,30.18313-2.33245,1.5671,0,3.12965,.00569,4.68537,.01137,3.29,.01478,6.57886,.02616,9.8643-.01592,35.21081-.44693,70.89015-.52654,104.20293-.54473,77.91935-.04094,156.10026-12.56522,239.00862-38.28587,81.61761-25.32035,164.71475-43.8742,246.98513-55.14525,67.56718-9.25475,138.92359-15.38667,212.0882-18.22405,46.77868-1.8116,97.95842-2.36884,161.08131-1.74337,57.79613,.96778,119.31098,3.18878,188.05405,6.79038,68.88863,3.60728,130.07597,7.5364,187.05329,12.00911,10.33057,.81084,20.66795,1.54777,31.00762,2.28583,27.94393,1.99242,56.84086,4.05308,85.10548,7.61601,35.08116,4.42154,75.70517,12.17287,111.03197,36.13537,28.67175,19.44999,44.693,44.69528,47.61567,75.03421,2.89765,30.0569-9.92116,53.9125-39.1911,72.9292-19.06447,12.38667-41.95911,19.71723-72.0524,23.07091-11.70206,1.3044-23.65886,2.1232-35.22218,2.91585-14.99092,1.02692-30.49587,2.08909-45.67102,4.22138-33.84386,4.75588-66.29576,18.34233-99.20937,41.53834-24.33437,17.14824-46.76275,37.26464-68.45421,56.71804-6.55042,5.87264-13.09858,11.74641-19.70586,17.54968-30.76198,27.01709-68.47241,56.75898-114.92129,72.51411-36.34803,12.32981-76.66954,17.97159-123.29128,17.22216-46.95153-.74488-93.89852-7.51934-137.63625-14.72822-49.0554-8.08568-99.78025-16.44657-150.05249-23.14938-59.0357-7.86961-121.75829-16.87189-182.55556-32.62248-67.25785-17.42572-128.82957-47.91135-188.23373-93.19912-31.36357-23.91132-66.911-51.01143-105.19118-72.28325-36.1149-20.0675-74.58614-31.64447-117.61083-35.39276-5.72139-.49811-11.45415-.93594-17.18918-1.37491-23.10844-1.76498-47.00498-3.58909-69.88371-9.57658-5.395-1.4113-10.77522-2.87832-16.15544-4.34534-15.51973-4.23162-31.56713-8.60767-47.73963-11.5292-6.78356-1.22479-12.2593-4.43746-16.27599-9.54929-4.07127-5.17893-5.43026-10.83549-3.72783-15.51859Z"/><path class="cls-1" d="M249.59848,1150.01701c21.69373-27.03415,40.96631-56.41553,59.60545-84.83027,7.66263-11.68159,15.58683-23.76121,23.56675-35.50649,15.21609-22.39654,14.95225-46.72409-.78469-72.30714-24.8791-40.45001-80.07098-63.61873-131.20751-55.09862-33.72445,5.62017-66.12745,19.33967-99.05925,41.94091-42.24569,28.99018-63.69947,69.34807-63.7677,119.94783v.03639c.3116,10.48978,.86884,22.6763,3.56407,34.59898,9.68462,42.83023,30.16948,72.8894,62.6282,91.897,16.00305,9.37075,34.36812,13.93785,52.46822,13.93785,24.38555,0,48.2855-8.2972,65.23927-24.31845,9.56521-9.03868,18.64142-18.95074,27.74719-30.29799Zm-71.30183,44.74077c-41.11529,7.83777-75.47318-5.04246-102.11839-38.27677-20.10147-25.0757-30.43446-56.06712-30.71194-92.11023-.29738-49.63681,20.79817-87.80156,64.49212-116.67546,33.92915-22.41928,64.53988-34.6331,96.33332-38.43712,50.86246-6.10008,101.04371,17.29153,122.02441,56.85337,11.21874,21.15469,10.65809,41.01521-1.6649,59.02888-8.53147,12.47083-16.95036,25.32149-25.0929,37.75137-21.33437,32.56334-43.39543,66.2389-69.53117,96.18662-13.16681,15.08872-29.84651,31.12816-53.73054,35.67934Z"/><path class="cls-1" d="M616.33356,555.95035c37.18048,27.95075,73.05771,48.73812,109.6855,63.55163,38.70892,15.65392,79.8424,18.75059,122.09491,20.75666,41.77488,1.98219,90.75295,6.23882,137.26324,22.77978,6.5436,2.32563,13.07583,4.6831,19.60806,7.03943,21.54817,7.77408,43.82871,15.812,66.15247,22.58987,28.50345,8.65429,55.79461,12.95415,82.56492,12.95301,13.18046,0,26.23809-1.04284,39.24569-3.12055,39.85297-6.36619,79.98796-20.39502,122.69992-42.88822,37.39201-19.69335,72.80069-43.77071,107.04486-67.05429,10.48068-7.12586,21.31845-14.49509,32.04704-21.62664l5.89993-3.92571c24.48676-16.31238,49.80825-33.17972,77.26544-45.3651,24.4117-10.83549,47.82038-13.0656,71.55657-6.82336,11.45869,3.01479,23.41095,5.68045,36.54136,8.1505,37.87647,7.12927,63.52092-6.7392,76.21692-41.21764,2.22896-6.06597,3.67097-12.03413,4.28507-17.73846,3.31388-30.87229-5.53602-54.00461-27.05689-70.71957-15.69373-12.18652-35.09481-18.38895-61.05997-19.51822-26.00837-1.12244-51.50954,4.26232-76.17371,9.47423-3.92571,.83018-7.85369,1.66035-11.78167,2.46551-41.58382,8.52351-75.12291,5.57582-105.54372-9.2684-10.73542-5.2392-22.64673-9.45263-35.40186-12.52541-25.81504-6.21494-52.52167-7.44997-78.35036-8.64406-4.51251-.20811-9.02503-.41736-13.53072-.65163-59.88407-3.10918-115.36708-4.60349-169.45812-4.45224h-.00682c-96.69382,.84268-200.48849,3.25474-304.36048,15.08872-57.38445,6.53564-106.33068,17.9443-149.63399,34.87533-24.16834,9.45035-49.62629,20.67137-72.08083,38.64409-7.97082,6.37984-14.74528,13.58531-20.13687,21.41966-23.75666,34.52279-18.2377,71.21199,14.40411,95.75106Zm-1.13609-100.14985c17.4098-19.28622,40.41817-30.64029,62.49401-40.61718,43.01673-19.44202,91.27153-32.51899,147.52102-39.98147,100.20558-13.29418,202.6333-16.15317,298.39459-17.26196,10.72632-.12396,21.5277-.18651,32.40186-.18651,48.31166,0,97.97661,1.22593,148.06689,3.66073,4.45338,.21607,8.90676,.41736,13.36241,.61865,24.45037,1.10652,49.73319,2.25057,74.37916,5.96589,17.49964,2.63723,34.04856,7.67855,49.18732,14.98068,31.34651,15.12284,66.132,18.68691,106.34205,10.89463,5.92495-1.14746,11.83625-2.38818,17.74756-3.62889,20.82262-4.36922,42.35259-8.88629,64.1282-9.07962,28.08495-.26839,48.15472,5.16528,64.98567,17.55537,16.48069,12.1308,25.80822,31.96289,25.5876,54.41288-.22517,23.15052-10.40107,44.62022-26.55196,56.02888-8.3336,5.88742-17.99547,8.28015-32.22218,7.93898h-.01365c-10.92647-.13306-24.02505-2.56558-41.22446-7.65353-33.84159-10.01214-66.91668-5.76688-101.12218,12.97575-32.71346,17.9261-63.95989,39.21157-94.176,59.79651-5.75892,3.92343-11.51783,7.84573-17.29039,11.74982-44.28588,29.94772-88.00314,58.45799-135.91904,78.1286-47.71802,19.58759-91.48078,27.9246-133.81517,25.49321-31.56031-1.81615-61.8583-10.90941-89.89776-20.46439-9.19106-3.13306-18.48903-6.46741-27.48222-9.69258-23.26311-8.34156-47.31545-16.96742-71.84315-22.93786-28.8014-7.01214-58.66497-9.2195-86.78403-10.87871l-9.83928-.56861c-31.23051-1.7809-63.5232-3.62434-94.54674-11.35293-37.53757-9.35255-70.71957-28.95379-98.87161-46.59217-12.78129-8.00607-23.93862-15.34573-34.10656-22.43634-16.93444-11.80896-26.89086-26.83741-28.79116-43.46252-2.02199-17.68842,5.23124-37.15433,19.89919-53.40529Z"/><path class="cls-1" d="M264.28462,1081.5355c17.13914-28.77411,23.82262-56.46102,20.43255-84.64832-4.16339-34.6058-31.24302-58.95837-65.8511-59.21993-10.29304-.09553-20.98752,1.28279-34.56031,4.40789-30.79268,7.09402-51.6153,20.38365-65.52927,41.82264-12.99736,20.02656-19.4443,43.51256-19.70814,71.80221l.00341,.1069c.2229,2.72707,.41054,5.45869,.59932,8.19031,.4094,5.94315,.83245,12.08644,1.61714,18.1001,3.33321,25.5694,10.89008,44.48148,23.78168,59.52016,9.6198,11.22215,19.77523,16.67856,31.63537,16.67856,5.59629,0,11.57469-1.21683,18.05233-3.61638,39.12742-14.49281,69.248-39.1024,89.52702-73.14414Zm-97.78215,67.79235c-10.93784,3.45944-20.95567,1.19864-29.77259-6.72101-11.07772-9.95301-18.73012-22.83551-23.39275-39.37988-7.64557-27.13877-8.80441-53.48604-3.44466-78.30942,9.01821-41.76351,35.33022-67.35793,78.20479-76.07136,10.57848-2.14936,20.4678-3.9348,30.19564-3.9348,4.89349,0,9.74831,.45262,14.62701,1.53753,24.06712,5.35406,42.45153,27.45037,44.70779,53.7385,.2138,2.48143,.34344,4.96968,.47877,7.55801,.06482,1.23048,.12964,2.48143,.20584,3.76422-.96664,27.77562-10.74907,54.34806-29.07661,78.97811-21.09214,28.35106-48.92803,48.1479-82.73323,58.8401Z"/><path class="cls-1" d="M853.51352,509.4321c12.20471,7.99925,25.39654,16.33512,42.77564,27.0296,43.29194,26.63726,88.05772,54.18202,135.41638,75.72791,36.86433,16.77182,71.89091,26.82717,107.07897,30.74151,12.60957,1.4022,25.44431,2.10273,38.46782,2.10273,22.10086,0,44.72939-2.01858,67.63086-6.0455,58.7514-10.3317,110.97739-31.41247,155.22005-62.65663,30.0387-21.21269,47.53607-44.53152,55.06906-73.38409,10.88326-41.67935-6.54588-78.2662-45.48679-95.48154-15.75059-6.9621-33.85296-10.96514-56.96368-12.59592-49.21234-3.47536-101.79997-6.1649-133.96756-6.85179h-.00682c-89.04484-1.43745-148.23065,1.67855-204.27318,10.76044-57.1752,9.26726-107.63167,24.43331-154.2534,46.367-6.27294,2.94997-13.47386,6.78128-19.32603,12.82678-9.83019,10.15316-11.29266,22.34878-4.11676,34.34083,4.01896,6.71419,9.6505,12.47424,16.73543,17.11867Zm-6.40486-46.89467c7.01669-6.81995,16.00305-10.69562,24.69601-14.44278,1.2464-.53677,2.49053-1.07468,3.7301-1.61941,49.00082-21.54134,102.51187-35.88746,163.59686-43.85828,40.84463-5.32791,83.61344-7.93557,132.753-7.93557,26.97729,0,55.88104,.78582,87.4277,2.34041,5.25626,.25815,10.51252,.50948,15.76878,.75967,27.08874,1.29075,55.09862,2.62586,82.56037,5.13685,15.05688,1.37718,28.2669,4.0417,40.38519,8.14482,43.7673,14.82034,62.59522,52.70817,47.96367,96.52324-7.8878,23.62019-23.81125,43.71499-48.68012,61.4307-45.762,32.5986-97.51262,53.30749-158.20868,63.31054-19.65582,3.23882-40.15092,4.96968-62.65436,5.28924-.44352,.00227-.88704,.00341-1.33283,.00341-52.00764,0-104.04713-13.46817-159.02976-41.15168-51.94851-26.15507-101.99102-57.55276-150.38683-87.91557l-4.24868-2.66452c-7.37833-4.62965-12.92344-9.70737-16.9515-15.52314-6.84838-9.88591-5.94542-19.50798,2.61107-27.82793Z"/><path class="cls-1" d="M256.6345,1001.11767c-3.34913-23.52694-16.70813-36.83249-38.63158-38.48147-22.33399-1.674-41.57132,7.68083-57.18998,27.81429-17.39615,22.42838-26.48373,49.86511-28.60011,86.34961l-.00455,.07733,.00569,.07733c.12737,1.73313,.22745,3.41168,.32411,5.05383,.20811,3.48674,.40372,6.78014,.82676,10.07583,2.82715,22.02125,14.15165,33.51861,32.87153,33.51861,1.60804,0,3.2718-.08643,4.98788-.25701,3.25588-.32297,6.75285-1.15315,11.0038-2.61107,48.2184-16.54437,81.59714-71.10168,74.40646-121.61728Zm-12.18197,49.87876c-11.62246,22.72861-27.41967,47.80673-56.4542,61.46937-1.43859,.67779-2.88628,1.33965-4.36013,1.93101-12.65165,5.06748-23.34157,5.17438-30.91778,.3025-7.5853-4.87643-11.93406-14.6725-12.57545-28.32604-1.39538-29.70663,5.90221-58.16231,21.69146-84.57554,7.53413-12.60502,18.71193-22.08266,33.2218-28.16683,6.69485-2.80668,13.243-4.20774,19.36469-4.20774,6.41282,0,12.35597,1.53753,17.5076,4.61032,10.06445,6.00228,16.41018,17.44051,17.86697,32.20625,.23313,2.35861,.40485,4.72404,.57544,7.0872l.24223,3.25702c.98256,12.91662-1.0906,24.49358-6.16263,34.41247Z"/><path class="cls-1" d="M1050.4061,588.77867c29.56334,10.66718,60.97581,14.86469,91.35113,18.92345,4.8878,.65391,9.77332,1.30667,14.64975,1.98446,16.46022,2.29037,33.4572,3.43442,50.89544,3.43442,20.18805,0,40.96517-1.53412,62.1608-4.60122,22.52846-3.25929,48.88027-8.18576,73.53307-20.0095,40.13272-19.2487,62.29272-46.4341,67.74686-83.11193,3.43897-23.12209-.39348-53.14714-38.17897-64.88332-48.70514-15.12966-99.52552-22.17592-159.94181-22.17592h-.10235c-42.97579,.29454-90.76887,4.46361-146.10631,12.7449-22.39199,3.35141-39.45039,9.27522-53.68164,18.64142-33.92119,22.32376-42.19793,59.11531-21.08645,93.73135,12.69372,20.81125,31.91512,35.63613,58.76049,45.32189Zm-61.58764-95.39738c3.80289-16.60578,15.30707-30.62096,33.26388-40.52848,18.58228-10.2521,39.27071-13.72291,57.20477-16.17136,53.51561-7.30782,96.93264-10.73201,136.64232-10.77863,58.9561-.09666,110.14949,7.31123,156.6757,22.6672,19.38516,6.39917,29.64295,19.32716,31.36243,39.52544,1.95376,22.93672-5.60198,43.76503-23.09935,63.67559-18.24339,20.76234-43.1441,34.36016-78.36173,42.7927-55.46709,13.28281-113.88641,14.50305-173.63174,3.62093-6.16149-1.12244-12.44353-2.12775-18.52087-3.10008-14.51101-2.32222-29.51785-4.72404-43.88557-8.87833-30.47995-8.81351-51.29801-22.27144-65.52017-42.35145-11.71116-16.53527-15.90525-33.98829-12.12966-50.47352Z"/><path class="cls-1" d="M222.12877,989.69536c-10.38402-3.90296-20.44961-1.53753-29.90906,7.04171-3.18537,2.88628-5.45414,5.40637-7.13951,7.92874-10.24869,15.33436-17.74642,32.45417-22.28282,50.88861-1.05535,4.28734-1.54549,8.67249-1.41585,12.68008,.21721,6.79607,2.44163,11.96362,6.43102,14.94543,2.56445,1.91736,5.79189,2.88628,9.52541,2.88628,2.12775,0,4.41926-.31615,6.84497-.94845,27.62551-7.19637,53.72144-40.38746,53.6987-68.29273-.01024-12.8916-6.19334-23.54059-15.75286-27.12968Zm-39.4538,88.24195c-4.79568,1.21001-8.52238,.83927-10.78887-1.08719-2.16187-1.83321-3.0671-5.04474-2.6884-9.54588,2.00607-23.8249,11.27333-45.48451,27.54476-64.37839,4.36013-5.06521,9.63117-7.6922,15.11374-7.6922,2.43253,0,4.90713,.51858,7.36127,1.56937,8.08568,3.45944,11.12208,10.88098,11.26991,16.67856-.25246,26.48146-23.92952,58.40341-47.81241,64.45572Z"/><path class="cls-1" d="M1069.37958,541.6031c13.67174,12.70282,30.64825,23.37455,53.43145,33.58571,14.81351,6.64027,30.43673,6.98257,44.22219,7.28394,3.67552,.08074,7.14861,.15694,10.46248,.34685l.03184,.00227h.03412c20.62474-.01592,36.98033-1.10197,53.03342-3.51858,40.15547-6.04777,71.47469-14.89426,98.5657-27.83931,15.66416-7.48636,25.7832-17.51101,30.93711-30.64598,5.20167-13.27143,4.8878-27.41285-.88704-39.81771-6.08644-13.07128-17.59062-23.02543-32.39731-28.02808-21.78244-7.36127-45.76882-12.1797-75.48455-15.16605-36.91437-3.7085-73.1032-2.8044-107.56116,2.68613-24.23885,3.8643-45.97579,7.80479-66.51638,16.92648-20.48827,9.09895-30.95531,26.69753-28.00307,47.07549,2.04701,14.11184,8.82033,26.59745,20.13118,37.10884Zm5.97726-74.701c13.67401-7.98333,29.27903-11.25513,44.37003-14.4189l3.26384-.68575c26.91815-5.68727,54.13426-8.78735,76.99251-8.78735,.84837,0,1.69219,.00341,2.52919,.01251h.01365c43.43523-.03184,80.75218,4.87756,117.51416,15.49926,24.03415,6.94391,36.81202,23.29154,35.98185,46.03152-.58681,16.02352-9.05687,28.392-25.8901,37.81506-22.15317,12.40032-46.7946,18.65393-72.20251,24.47653-27.67782,6.34459-57.97581,9.10805-92.70216,8.43026-35.88859-.69371-67.77415-16.0258-97.47851-46.87193-5.9113-6.13647-9.5618-14.54285-10.85142-24.98487-1.96285-15.93027,4.2464-28.21686,18.45946-36.51634Z"/><path class="cls-1" d="M1130.62378,539.81197c3.40486,1.87756,6.99622,3.47878,10.05991,4.79796,19.4352,8.36999,40.2237,12.53906,62.82267,12.53906,14.54513,0,29.84537-1.72745,46.01446-5.17324,19.89919-4.24185,34.66494-11.11866,46.46935-21.6437,9.40486-8.38477,14.41548-18.77561,14.10843-29.25629-.30705-10.49774-5.92722-20.59517-15.82564-28.43294-2.36088-1.86619-4.8969-3.61638-7.53981-5.20054-22.72633-13.61829-48.64828-19.46363-83.99328-18.89161-14.59971-.14102-27.92346,.88817-39.56639,2.99318-12.96893,2.3461-29.47464,6.6687-42.11832,19.37152-11.05157,11.10274-16.1145,24.37076-14.25855,37.36017,1.84231,12.88136,10.30327,24.08077,23.82717,31.53643Zm-8.98409-57.90644c5.19485-7.23276,12.27067-12.75513,21.63005-16.88213,14.08114-6.20926,29.5042-7.70244,42.85297-8.61335,7.2646-.49697,14.11526-.7483,20.61792-.7483,22.40336,0,40.68542,2.98749,57.55958,9.2593,11.91813,4.42836,20.74301,9.43784,27.77562,15.7631,6.53223,5.87719,10.17363,12.77901,10.53072,19.95833,.35254,7.1088-2.54056,14.2449-8.36316,20.63611-12.94619,14.20623-30.7779,19.84915-44.86586,23.17895-13.64217,3.22631-28.45796,4.92988-46.62629,5.35975-28.31694-.38666-51.71424-6.45262-71.527-18.54703-9.28204-5.66566-15.11601-13.23845-16.87189-21.89843-1.79227-8.83625,.72782-18.33323,7.28735-27.46629Z"/><path class="cls-1" d="M1168.35468,525.71377c10.42382,8.1994,22.84006,12.03982,38.9864,12.03982,.46399,0,.93025-.00341,1.40106-.0091h.00455c17.91359-.32184,33.04098-3.43897,46.24873-9.5311,13.45112-6.20243,20.41094-15.55498,20.68842-27.79609,.2934-13.06332-6.4367-23.23126-19.46704-29.40413-26.36319-12.49357-53.14487-13.83095-79.60586-3.98598-12.45263,4.63647-20.28585,13.4261-22.05765,24.74946-1.92191,12.29228,3.62548,25.9299,13.80138,33.93711Zm-6.22745-33.49132c1.74451-8.27105,7.09402-14.08114,16.83323-18.28319,8.91586-3.8461,18.89843-5.55649,33.3776-5.71911,14.45187,.37074,27.4481,3.16035,38.62476,8.29379,3.82336,1.75474,7.29417,4.23276,10.31692,7.36468,5.08795,5.27332,7.56256,11.19486,7.1577,17.12436-.40713,5.93746-3.67324,11.47689-9.44808,16.01897-9.53223,7.49432-20.87948,9.83246-33.65053,11.91927-15.94846,2.6088-28.61489,1.92191-39.85524-2.163-16.49206-5.9966-26.31315-20.52921-23.35636-34.55576Z"/><path class="cls-1" d="M1193.09846,514.6042c4.81502,3.74034,11.26764,5.53488,17.83399,5.53374,8.93633,0,18.0819-3.32525,23.57471-9.59705,4.2555-4.85596,5.94997-10.73883,4.65126-16.13952-1.28507-5.33928-5.40183-9.74717-11.29266-12.0944-4.92647-1.96285-10.23049-2.85558-18.29797-3.07847-2.83852-.2138-7.12131,.70167-10.99243,2.30971-6.57772,2.73503-11.25854,8.86354-12.21381,15.99282-.90068,6.71305,1.61714,13.0963,6.73693,17.07318Zm.60046-17.31427c.79833-4.52389,3.76422-7.53754,9.32981-9.48333,2.3859-.83472,4.46248-1.24071,6.39121-1.24071,.66414,0,1.31008,.04776,1.94466,.14329l.08188,.0091c4.64671,.3787,9.45035,.77104,13.78773,2.6395,3.66869,1.57961,5.97499,3.91661,6.66415,6.7574,.70508,2.89424-.30478,6.10804-2.91812,9.29455-3.19788,3.90069-8.89084,6.59705-15.23201,7.21343-6.21608,.605-12.20699-.90182-15.99623-4.03147-3.50038-2.8931-4.86506-6.69485-4.05308-11.30176Z"/></g></g></svg>