<?xml version="1.0" encoding="UTF-8"?><svg id="Layer_2" xmlns="http://www.w3.org/2000/svg" viewBox="0 0 61.87083 68.11"><defs><style>.cls-1{fill:#fff;}.cls-2{opacity:.03;}</style></defs><g id="Layer_1-2"><g class="cls-2"><path class="cls-1" d="M.00083,67.31c1.27,.8,2.96-.41,4.31-1.08,5.21-2.61,10.65-4.27,16.38-4.91,2.72-.3,5.5-.76,7.51-2.8,8.1-8.25,17.16-15.43,24.5-24.52,1.77-2.18,3.1-4.66,3.8-7.58-.21-3.63-2.91-3.92-5.43-4.2C34.04083,20.39,18.44083,14.19,3.71083,5.19,2.62083,4.52,1.17083,2.86,.00083,3.32V11.76c.78,.83,1.93,1.37,2.95,1.93,5.54,3.04,11.48,4.76,17.59,5.98,7,1.39,14.07,2.66,20.62,5.8,5.05,2.43,6.71,6.42,3.79,10.33-5.41,7.26-11.25,14.16-20.67,15.75-7.92,1.34-15.07,5.04-22.29,8.51-.75,.36-1.43,.8-1.99,1.32v5.93Z"/><path class="cls-1" d="M16.24083,68.11c-.15-.41-.31-.82-.46-1.24,10.6,1.05,17.35-5.43,23.91-12.58,4.65-5.06,9.83-9.56,14.64-14.46,2.53-2.58,4.45-5.73,5.9-9.13,2.79-6.44,.58-11.39-5.97-12.9-4.19-.95-8.5-1.23-12.71-2.1C29.13083,13.16,17.64083,8.14,5.92083,.65c2.07-.42,3.91-.65,5.63-.65,2.14,0,4.07,.36,5.97,1.18,12.77,5.54,26.16,8.38,39.79,9.88,2.39,.26,3.69,.99,4.45,2.26,.04,.06,.08,.13,.11,.19v21.34c-.03,.11-.07,.23-.11,.34-1.91,6.07-5.62,11.34-11.5,15.85-3.81,2.93-6.83,7.02-10.16,10.64-3.09,3.36-6.51,5.67-10.55,6.43h-6.4c-1.43-.1-2.88-.05-4.34,0h-2.57Z"/><path class="cls-1" d="M41.18113,32.70997c-.24006,.51002-.39002,1.23001-.81008,1.67003-4.26006,4.43011-7.92019,9.99025-14.10034,11.45031-7.9302,1.88005-15.53037,4.57013-22.89061,8.13022-1.04001,.51002-2.36005,1.43003-3.38009,1.07004v-5.37013c.62001-.42005,1.39005-.68007,2.2301-.80007,4.39007-.63002,8.82024-1.07004,13.06034-2.48005,3.3901-1.13003,6.68017-2.64008,7.2002-7.04016,.51997-4.53015-2.09008-7.1402-5.44014-9.15026-4.16014-2.50007-8.79027-3.7501-13.22038-5.54012-1.34-.55006-2.75007-.98007-3.83012-2.00005v-4.41015c.46003-.09998,.96005,.04004,1.42008,.29005,11.08024,5.89011,23.63062,6.11014,35.15088,10.29025,1.85008,.67,4.1201,1.02005,4.61017,3.89012Z"/><path class="cls-1" d="M43.72083,68.11c-.42-.05-.89-.12-1.39-.19,6.47-6.95,13.04-14.01,19.43-20.87v9.06c-.88,1.24-2.28,2.46-4.34,3.98-1.71,1.27-3.27,2.77-4.79,4.28-2.27,2.25-3.48,3.34-5,3.74h-3.91Z"/><path class="cls-1" d="M13.94037,40.44015c-3.77006,1.12002-7.71016,1.92003-11.6203,2.15008-1.04001,.06-1.78001-.11005-2.32007-.45002v-11.76032c.91006-.22999,2.39008,.21998,4.77014,1.05002,3.29006,1.15005,6.69018,2.05004,9.62025,4.11009,2.68006,1.88005,2.6601,3.98015-.45002,4.90015Z"/><path class="cls-1" d="M61.76083,5.62c-.99,1.2-2.95,.73-4.59,.52C48.22083,4.93,39.31083,3.48,30.77083,.06c8.87,0,17.74-.02,26.61,.02,1.62,.01,3.44,.07,4.38,1.17V5.62Z"/></g></g></svg>